<svg xmlns="http://www.w3.org/2000/svg" width="1200" height="820" viewBox="0 0 1200 820" font-family="monospace, Courier New">

    <!-- Background -->
    <rect width="1200" height="820" fill="#F7F7F7"/>

    <!-- Title -->
    <text x="600" y="30" text-anchor="middle" font-size="15" font-weight="bold" fill="#333">LabLens — Main Dashboard / Host Overview</text>
    <text x="600" y="48" text-anchor="middle" font-size="11" fill="#888">Low-Fidelity Wireframe  •  v0.1</text>
    <line x1="40" y1="58" x2="1160" y2="58" stroke="#CCC" stroke-width="1"/>

    <!-- ═══════════════════════════════════════════════ -->
    <!-- TOP NAV BAR -->
    <!-- ═══════════════════════════════════════════════ -->
    <rect x="40" y="68" width="1120" height="44" fill="#DDD" stroke="#AAA" stroke-width="1" rx="3"/>
    <!-- Logo area -->
    <rect x="52" y="78" width="90" height="24" fill="#BBB" stroke="#999" stroke-width="1" rx="2"/>
    <text x="97" y="94" text-anchor="middle" font-size="11" font-weight="bold" fill="#444">LabLens</text>
    <!-- Nav items -->
    <rect x="160" y="80" width="80" height="20" fill="#CCC" stroke="#AAA" stroke-width="1" rx="2"/>
    <text x="200" y="94" text-anchor="middle" font-size="10" fill="#333">Dashboard</text>
    <rect x="248" y="80" width="70" height="20" fill="#EEE" stroke="#AAA" stroke-width="1" rx="2"/>
    <text x="283" y="94" text-anchor="middle" font-size="10" fill="#555">Configs</text>
    <rect x="326" y="80" width="60" height="20" fill="#EEE" stroke="#AAA" stroke-width="1" rx="2"/>
    <text x="356" y="94" text-anchor="middle" font-size="10" fill="#555">Logs</text>
    <rect x="394" y="80" width="70" height="20" fill="#EEE" stroke="#AAA" stroke-width="1" rx="2"/>
    <text x="429" y="94" text-anchor="middle" font-size="10" fill="#555">Timeline</text>
    <!-- Right side controls -->
    <rect x="980" y="80" width="80" height="20" fill="#EEE" stroke="#AAA" stroke-width="1" rx="2"/>
    <text x="1020" y="94" text-anchor="middle" font-size="10" fill="#555">+ Add Host</text>
    <rect x="1068" y="80" width="80" height="20" fill="#EEE" stroke="#AAA" stroke-width="1" rx="2"/>
    <text x="1108" y="94" text-anchor="middle" font-size="10" fill="#555">⚙ Settings</text>
    <!-- Nav annotation -->
    <text x="600" y="124" text-anchor="middle" font-size="9" fill="#999" font-style="italic">[ Top Navigation Bar — persistent across all views ]</text>

    <!-- ═══════════════════════════════════════════════ -->
    <!-- LEFT SIDEBAR — Host Tree -->
    <!-- ═══════════════════════════════════════════════ -->
    <rect x="40" y="130" width="220" height="650" fill="#E8E8E8" stroke="#AAA" stroke-width="1" rx="3"/>
    <rect x="40" y="130" width="220" height="28" fill="#CCC" stroke="#AAA" stroke-width="1" rx="3"/>
    <text x="150" y="148" text-anchor="middle" font-size="11" font-weight="bold" fill="#333">Hosts</text>

    <!-- Search box -->
    <rect x="52" y="166" width="196" height="22" fill="#FFF" stroke="#AAA" stroke-width="1" rx="2"/>
    <text x="150" y="181" text-anchor="middle" font-size="9" fill="#AAA">🔍 Search hosts...</text>

    <!-- Host group: Production -->
    <rect x="52" y="196" width="196" height="20" fill="#D5D5D5" stroke="#BBB" stroke-width="1" rx="1"/>
    <text x="62" y="210" font-size="10" font-weight="bold" fill="#444">▾ Production</text>

    <!-- Host items -->
    <rect x="62" y="218" width="176" height="24" fill="#FFF" stroke="#CCC" stroke-width="1" rx="2"/>
    <circle cx="76" cy="230" r="5" fill="#6DBE6D" stroke="#5AA85A" stroke-width="1"/>
    <text x="86" y="234" font-size="10" fill="#333">homeserver-01</text>
    <text x="218" y="234" text-anchor="end" font-size="9" fill="#888">192.168.1.10</text>

    <rect x="62" y="245" width="176" height="24" fill="#F0F0F0" stroke="#CCC" stroke-width="1" rx="2"/>
    <circle cx="76" cy="257" r="5" fill="#6DBE6D" stroke="#5AA85A" stroke-width="1"/>
    <text x="86" y="261" font-size="10" fill="#333">nas-01</text>
    <text x="218" y="261" text-anchor="end" font-size="9" fill="#888">192.168.1.20</text>

    <rect x="62" y="272" width="176" height="24" fill="#FFF" stroke="#CCC" stroke-width="1" rx="2"/>
    <circle cx="76" cy="284" r="5" fill="#E8A838" stroke="#C88820" stroke-width="1"/>
    <text x="86" y="288" font-size="10" fill="#333">router-01</text>
    <text x="218" y="288" text-anchor="end" font-size="9" fill="#888">192.168.1.1</text>

    <!-- Host group: Lab -->
    <rect x="52" y="304" width="196" height="20" fill="#D5D5D5" stroke="#BBB" stroke-width="1" rx="1"/>
    <text x="62" y="318" font-size="10" font-weight="bold" fill="#444">▾ Lab / Dev</text>

    <rect x="62" y="326" width="176" height="24" fill="#FFF" stroke="#CCC" stroke-width="1" rx="2"/>
    <circle cx="76" cy="338" r="5" fill="#6DBE6D" stroke="#5AA85A" stroke-width="1"/>
    <text x="86" y="342" font-size="10" fill="#333">pve-node-01</text>
    <text x="218" y="342" text-anchor="end" font-size="9" fill="#888">192.168.2.10</text>

    <rect x="62" y="353" width="176" height="24" fill="#F0F0F0" stroke="#CCC" stroke-width="1" rx="2"/>
    <circle cx="76" cy="365" r="5" fill="#D95B5B" stroke="#B83E3E" stroke-width="1"/>
    <text x="86" y="369" font-size="10" fill="#333">pi-hole-01</text>
    <text x="218" y="369" text-anchor="end" font-size="9" fill="#888">192.168.2.20</text>

    <rect x="62" y="380" width="176" height="24" fill="#FFF" stroke="#CCC" stroke-width="1" rx="2"/>
    <circle cx="76" cy="392" r="5" fill="#6DBE6D" stroke="#5AA85A" stroke-width="1"/>
    <text x="86" y="396" font-size="10" fill="#333">docker-host-01</text>
    <text x="218" y="396" text-anchor="end" font-size="9" fill="#888">192.168.2.30</text>

    <!-- Legend -->
    <rect x="52" y="720" width="196" height="52" fill="#FFF" stroke="#CCC" stroke-width="1" rx="2"/>
    <text x="150" y="735" text-anchor="middle" font-size="9" font-weight="bold" fill="#555">Legend</text>
    <circle cx="64" cy="748" r="5" fill="#6DBE6D"/><text x="74" y="752" font-size="9" fill="#444">Online</text>
    <circle cx="112" cy="748" r="5" fill="#E8A838"/><text x="122" y="752" font-size="9" fill="#444">Warning</text>
    <circle cx="168" cy="748" r="5" fill="#D95B5B"/><text x="178" y="752" font-size="9" fill="#444">Offline</text>
    <text x="150" y="766" text-anchor="middle" font-size="8" fill="#AAA">[ Sidebar scrollable ]</text>

    <!-- Sidebar annotation -->
    <text x="150" y="790" text-anchor="middle" font-size="9" fill="#999" font-style="italic">[ Host Tree Panel — resizable ]</text>

    <!-- ═══════════════════════════════════════════════ -->
    <!-- MAIN CONTENT AREA -->
    <!-- ═══════════════════════════════════════════════ -->
    <rect x="272" y="130" width="888" height="650" fill="#FFFFFF" stroke="#AAA" stroke-width="1" rx="3"/>

    <!-- Content header -->
    <rect x="272" y="130" width="888" height="36" fill="#E0E0E0" stroke="#AAA" stroke-width="1" rx="3"/>
    <text x="290" y="153" font-size="12" font-weight="bold" fill="#333">Dashboard Overview</text>
    <rect x="1060" y="138" width="88" height="20" fill="#EEE" stroke="#AAA" stroke-width="1" rx="2"/>
    <text x="1104" y="152" text-anchor="middle" font-size="9" fill="#555">↺ Refresh All</text>

    <!-- ─── SUMMARY STATS ROW ─── -->
    <text x="290" y="184" font-size="10" font-weight="bold" fill="#555">SUMMARY</text>

    <!-- Stat cards -->
    <!-- Card 1: Total Hosts -->
    <rect x="284" y="190" width="190" height="70" fill="#F5F5F5" stroke="#CCC" stroke-width="1" rx="3"/>
    <text x="379" y="210" text-anchor="middle" font-size="10" fill="#777">Total Hosts</text>
    <text x="379" y="238" text-anchor="middle" font-size="28" font-weight="bold" fill="#444">6</text>
    <text x="379" y="254" text-anchor="middle" font-size="9" fill="#AAA">registered</text>

    <!-- Card 2: Online -->
    <rect x="482" y="190" width="190" height="70" fill="#F5F5F5" stroke="#CCC" stroke-width="1" rx="3"/>
    <text x="577" y="210" text-anchor="middle" font-size="10" fill="#777">Online</text>
    <text x="577" y="238" text-anchor="middle" font-size="28" font-weight="bold" fill="#6DBE6D">4</text>
    <text x="577" y="254" text-anchor="middle" font-size="9" fill="#AAA">reachable via SSH</text>

    <!-- Card 3: Changes Today -->
    <rect x="680" y="190" width="190" height="70" fill="#F5F5F5" stroke="#CCC" stroke-width="1" rx="3"/>
    <text x="775" y="210" text-anchor="middle" font-size="10" fill="#777">Config Changes Today</text>
    <text x="775" y="238" text-anchor="middle" font-size="28" font-weight="bold" fill="#E8A838">3</text>
    <text x="775" y="254" text-anchor="middle" font-size="9" fill="#AAA">across 2 hosts</text>

    <!-- Card 4: Errors (24h) -->
    <rect x="878" y="190" width="270" height="70" fill="#F5F5F5" stroke="#CCC" stroke-width="1" rx="3"/>
    <text x="1013" y="210" text-anchor="middle" font-size="10" fill="#777">Log Errors (24h)</text>
    <text x="1013" y="238" text-anchor="middle" font-size="28" font-weight="bold" fill="#D95B5B">17</text>
    <text x="1013" y="254" text-anchor="middle" font-size="9" fill="#AAA">across 3 hosts</text>

    <!-- ─── HOST CARDS GRID ─── -->
    <text x="290" y="282" font-size="10" font-weight="bold" fill="#555">HOST CARDS</text>

    <!-- HOST CARD 1: homeserver-01 -->
    <rect x="284" y="290" width="388" height="175" fill="#FAFAFA" stroke="#CCC" stroke-width="1" rx="3"/>
    <!-- Card header -->
    <rect x="284" y="290" width="388" height="32" fill="#E0E0E0" stroke="#CCC" stroke-width="1" rx="3"/>
    <circle cx="300" cy="306" r="6" fill="#6DBE6D" stroke="#5AA85A" stroke-width="1"/>
    <text x="313" y="310" font-size="11" font-weight="bold" fill="#333">homeserver-01</text>
    <text x="480" y="310" font-size="9" fill="#888">192.168.1.10  •  Ubuntu 24.04</text>
    <!-- Card body -->
    <text x="296" y="338" font-size="9" font-weight="bold" fill="#777">TRACKED FILES</text>
    <rect x="296" y="344" width="364" height="14" fill="#EEE" stroke="#CCC" stroke-width="1" rx="1"/>
    <text x="302" y="354" font-size="8" fill="#555">/etc/nginx/nginx.conf</text>
    <text x="648" y="354" text-anchor="end" font-size="8" fill="#E8A838">● changed 2h ago</text>

    <rect x="296" y="361" width="364" height="14" fill="#FFF" stroke="#CCC" stroke-width="1" rx="1"/>
    <text x="302" y="371" font-size="8" fill="#555">/etc/ssh/sshd_config</text>
    <text x="648" y="371" text-anchor="end" font-size="8" fill="#6DBE6D">● no changes</text>

    <rect x="296" y="378" width="364" height="14" fill="#EEE" stroke="#CCC" stroke-width="1" rx="1"/>
    <text x="302" y="388" font-size="8" fill="#555">/etc/crontab</text>
    <text x="648" y="388" text-anchor="end" font-size="8" fill="#6DBE6D">● no changes</text>

    <text x="296" y="408" font-size="9" font-weight="bold" fill="#777">RECENT LOG ACTIVITY</text>
    <!-- Mini log bar chart -->
    <rect x="296" y="412" width="364" height="32" fill="#EEE" stroke="#CCC" stroke-width="1" rx="1"/>
    <rect x="304" y="432" width="8" height="6" fill="#D95B5B" rx="1"/>
    <rect x="316" y="428" width="8" height="10" fill="#D95B5B" rx="1"/>
    <rect x="328" y="436" width="8" height="2" fill="#D95B5B" rx="1"/>
    <rect x="340" y="424" width="8" height="14" fill="#D95B5B" rx="1"/>
    <rect x="352" y="434" width="8" height="4" fill="#D95B5B" rx="1"/>
    <rect x="364" y="430" width="8" height="8" fill="#D95B5B" rx="1"/>
    <rect x="376" y="436" width="8" height="2" fill="#D95B5B" rx="1"/>
    <rect x="388" y="432" width="8" height="6" fill="#D95B5B" rx="1"/>
    <text x="296" y="455" font-size="8" fill="#AAA">ERROR frequency — last 24h</text>

    <!-- Card action buttons -->
    <rect x="296" y="448" width="80" height="18" fill="#E8E8E8" stroke="#CCC" stroke-width="1" rx="2"/>
    <text x="336" y="460" text-anchor="middle" font-size="8" fill="#444">View Configs</text>
    <rect x="384" y="448" width="70" height="18" fill="#E8E8E8" stroke="#CCC" stroke-width="1" rx="2"/>
    <text x="419" y="460" text-anchor="middle" font-size="8" fill="#444">View Logs</text>
    <rect x="462" y="448" width="80" height="18" fill="#E8E8E8" stroke="#CCC" stroke-width="1" rx="2"/>
    <text x="502" y="460" text-anchor="middle" font-size="8" fill="#444">Timeline</text>

    <!-- HOST CARD 2: nas-01 -->
    <rect x="680" y="290" width="468" height="175" fill="#FAFAFA" stroke="#CCC" stroke-width="1" rx="3"/>
    <rect x="680" y="290" width="468" height="32" fill="#E0E0E0" stroke="#CCC" stroke-width="1" rx="3"/>
    <circle cx="696" cy="306" r="6" fill="#6DBE6D" stroke="#5AA85A" stroke-width="1"/>
    <text x="709" y="310" font-size="11" font-weight="bold" fill="#333">nas-01</text>
    <text x="850" y="310" font-size="9" fill="#888">192.168.1.20  •  TrueNAS Scale</text>

    <text x="692" y="338" font-size="9" font-weight="bold" fill="#777">TRACKED FILES</text>
    <rect x="692" y="344" width="444" height="14" fill="#EEE" stroke="#CCC" stroke-width="1" rx="1"/>
    <text x="698" y="354" font-size="8" fill="#555">/etc/samba/smb.conf</text>
    <text x="1134" y="354" text-anchor="end" font-size="8" fill="#6DBE6D">● no changes</text>
    <rect x="692" y="361" width="444" height="14" fill="#FFF" stroke="#CCC" stroke-width="1" rx="1"/>
    <text x="698" y="371" font-size="8" fill="#555">/etc/fstab</text>
    <text x="1134" y="371" text-anchor="end" font-size="8" fill="#6DBE6D">● no changes</text>
    <rect x="692" y="378" width="444" height="14" fill="#EEE" stroke="#CCC" stroke-width="1" rx="1"/>
    <text x="698" y="388" font-size="8" fill="#555">/etc/hosts</text>
    <text x="1134" y="388" text-anchor="end" font-size="8" fill="#6DBE6D">● no changes</text>

    <text x="692" y="408" font-size="9" font-weight="bold" fill="#777">RECENT LOG ACTIVITY</text>
    <rect x="692" y="412" width="444" height="32" fill="#EEE" stroke="#CCC" stroke-width="1" rx="1"/>
    <rect x="700" y="436" width="8" height="2" fill="#D95B5B" rx="1"/>
    <rect x="712" y="436" width="8" height="2" fill="#D95B5B" rx="1"/>
    <rect x="724" y="434" width="8" height="4" fill="#D95B5B" rx="1"/>
    <rect x="736" y="436" width="8" height="2" fill="#D95B5B" rx="1"/>
    <text x="692" y="455" font-size="8" fill="#AAA">ERROR frequency — last 24h</text>

    <rect x="692" y="448" width="80" height="18" fill="#E8E8E8" stroke="#CCC" stroke-width="1" rx="2"/>
    <text x="732" y="460" text-anchor="middle" font-size="8" fill="#444">View Configs</text>
    <rect x="780" y="448" width="70" height="18" fill="#E8E8E8" stroke="#CCC" stroke-width="1" rx="2"/>
    <text x="815" y="460" text-anchor="middle" font-size="8" fill="#444">View Logs</text>
    <rect x="858" y="448" width="70" height="18" fill="#E8E8E8" stroke="#CCC" stroke-width="1" rx="2"/>
    <text x="893" y="460" text-anchor="middle" font-size="8" fill="#444">Timeline</text>

    <!-- HOST CARD 3: docker-host-01 (WARNING state) -->
    <rect x="284" y="474" width="388" height="175" fill="#FAFAFA" stroke="#E8A838" stroke-width="1.5" rx="3"/>
    <rect x="284" y="474" width="388" height="32" fill="#F5E4C0" stroke="#E8A838" stroke-width="1" rx="3"/>
    <circle cx="300" cy="490" r="6" fill="#E8A838" stroke="#C88820" stroke-width="1"/>
    <text x="313" y="494" font-size="11" font-weight="bold" fill="#333">router-01</text>
    <text x="480" y="494" font-size="9" fill="#888">192.168.1.1  •  OPNsense</text>
    <text x="648" y="494" text-anchor="end" font-size="9" fill="#E8A838">⚠ config drift</text>

    <text x="296" y="522" font-size="9" font-weight="bold" fill="#777">TRACKED FILES</text>
    <rect x="296" y="528" width="364" height="14" fill="#FFF3DC" stroke="#E8A838" stroke-width="1" rx="1"/>
    <text x="302" y="538" font-size="8" fill="#555">/etc/firewall/rules.conf</text>
    <text x="648" y="538" text-anchor="end" font-size="8" fill="#E8A838">● changed 45m ago</text>
    <rect x="296" y="545" width="364" height="14" fill="#FFF3DC" stroke="#E8A838" stroke-width="1" rx="1"/>
    <text x="302" y="555" font-size="8" fill="#555">/etc/unbound/unbound.conf</text>
    <text x="648" y="555" text-anchor="end" font-size="8" fill="#E8A838">● changed 45m ago</text>
    <rect x="296" y="562" width="364" height="14" fill="#EEE" stroke="#CCC" stroke-width="1" rx="1"/>
    <text x="302" y="572" font-size="8" fill="#555">/etc/crontab</text>
    <text x="648" y="572" text-anchor="end" font-size="8" fill="#6DBE6D">● no changes</text>

    <text x="296" y="592" font-size="9" font-weight="bold" fill="#777">RECENT LOG ACTIVITY</text>
    <rect x="296" y="596" width="364" height="32" fill="#EEE" stroke="#CCC" stroke-width="1" rx="1"/>
    <rect x="304" y="616" width="8" height="2" fill="#D95B5B" rx="1"/>
    <rect x="316" y="610" width="8" height="8" fill="#D95B5B" rx="1"/>
    <rect x="328" y="606" width="8" height="12" fill="#D95B5B" rx="1"/>
    <rect x="340" y="600" width="8" height="18" fill="#D95B5B" rx="1"/>
    <rect x="352" y="612" width="8" height="6" fill="#D95B5B" rx="1"/>
    <text x="296" y="639" font-size="8" fill="#AAA">ERROR frequency — last 24h (spike detected)</text>

    <rect x="296" y="632" width="80" height="18" fill="#E8E8E8" stroke="#CCC" stroke-width="1" rx="2"/>
    <text x="336" y="644" text-anchor="middle" font-size="8" fill="#444">View Configs</text>
    <rect x="384" y="632" width="70" height="18" fill="#E8E8E8" stroke="#CCC" stroke-width="1" rx="2"/>
    <text x="419" y="644" text-anchor="middle" font-size="8" fill="#444">View Logs</text>
    <rect x="462" y="632" width="80" height="18" fill="#E8E8E8" stroke="#CCC" stroke-width="1" rx="2"/>
    <text x="502" y="644" text-anchor="middle" font-size="8" fill="#444">Timeline</text>

    <!-- HOST CARD 4: pi-hole (offline) -->
    <rect x="680" y="474" width="468" height="175" fill="#FAFAFA" stroke="#D95B5B" stroke-width="1.5" rx="3"/>
    <rect x="680" y="474" width="468" height="32" fill="#F5CCCC" stroke="#D95B5B" stroke-width="1" rx="3"/>
    <circle cx="696" cy="490" r="6" fill="#D95B5B" stroke="#B83E3E" stroke-width="1"/>
    <text x="709" y="494" font-size="11" font-weight="bold" fill="#333">pi-hole-01</text>
    <text x="860" y="494" font-size="9" fill="#888">192.168.2.20  •  Raspberry Pi OS</text>
    <text x="1136" y="494" text-anchor="end" font-size="9" fill="#D95B5B">✕ unreachable</text>

    <rect x="692" y="516" width="444" height="110" fill="#F5F5F5" stroke="#DDD" stroke-width="1" rx="2"/>
    <text x="914" y="565" text-anchor="middle" font-size="11" fill="#CCC">SSH connection failed</text>
    <text x="914" y="582" text-anchor="middle" font-size="9" fill="#CCC">Last seen: 3h ago  •  Last snapshot: 3h ago</text>
    <rect x="834" y="592" width="160" height="18" fill="#EEE" stroke="#CCC" stroke-width="1" rx="2"/>
    <text x="914" y="604" text-anchor="middle" font-size="8" fill="#888">Retry Connection</text>

    <!-- ─── BOTTOM STATUS BAR ─── -->
    <rect x="272" y="748" width="888" height="32" fill="#E8E8E8" stroke="#AAA" stroke-width="1" rx="2"/>
    <text x="286" y="768" font-size="9" fill="#666">Last refresh: 2 min ago</text>
    <text x="600" y="768" text-anchor="middle" font-size="9" fill="#666">4 / 6 hosts online  •  Next snapshot poll in: 58 min</text>
    <text x="1148" y="768" text-anchor="end" font-size="9" fill="#666">LabLens v0.1.0</text>

    <!-- ═══════════════════════════════════════════════ -->
    <!-- ANNOTATIONS -->
    <!-- ═══════════════════════════════════════════════ -->

    <!-- Left sidebar annotation arrow -->
    <line x1="30" y1="300" x2="40" y2="300" stroke="#999" stroke-width="1" stroke-dasharray="3,2"/>
    <text x="28" y="303" text-anchor="end" font-size="8" fill="#999" transform="rotate(-90,28,303)">[ Scrollable host tree ]</text>

    <!-- Host card annotation -->
    <line x1="284" y1="655" x2="284" y2="670" stroke="#999" stroke-width="1" stroke-dasharray="3,2"/>
    <line x1="284" y1="670" x2="660" y2="670" stroke="#999" stroke-width="1" stroke-dasharray="3,2"/>
    <text x="470" y="682" text-anchor="middle" font-size="9" fill="#999" font-style="italic">[ Host card — repeated per registered host, grid layout ]</text>

    <!-- Warning card annotation -->
    <line x1="672" y1="530" x2="660" y2="530" stroke="#E8A838" stroke-width="1" stroke-dasharray="3,2"/>
    <text x="658" y="528" text-anchor="end" font-size="8" fill="#E8A838" font-style="italic">⚠ warning border</text>

    <!-- Offline card annotation -->
    <line x1="1148" y1="540" x2="1160" y2="540" stroke="#D95B5B" stroke-width="1" stroke-dasharray="3,2"/>
    <text x="1162" y="543" font-size="8" fill="#D95B5B" font-style="italic">✕ offline state</text>

</svg>
